<?xml version="1.0" encoding="UTF-8" standalone="no"?>
<svg
   width="150mm"
   height="150mm"
   viewBox="0 0 150 150"
   version="1.1"
   id="svg848"
   sodipodi:docname="letsplay_logo.svg"
   inkscape:version="1.1 (c4e8f9e, 2021-05-24)"
   xmlns:inkscape="http://www.inkscape.org/namespaces/inkscape"
   xmlns:sodipodi="http://sodipodi.sourceforge.net/DTD/sodipodi-0.dtd"
   xmlns:xlink="http://www.w3.org/1999/xlink"
   xmlns="http://www.w3.org/2000/svg"
   xmlns:svg="http://www.w3.org/2000/svg">
  <sodipodi:namedview
     id="namedview850"
     pagecolor="#ffffff"
     bordercolor="#666666"
     borderopacity="1.0"
     inkscape:pageshadow="2"
     inkscape:pageopacity="0.0"
     inkscape:pagecheckerboard="0"
     inkscape:document-units="mm"
     showgrid="false"
     inkscape:zoom="0.87634882"
     inkscape:cx="171.16472"
     inkscape:cy="386.83227"
     inkscape:window-width="1792"
     inkscape:window-height="992"
     inkscape:window-x="0"
     inkscape:window-y="25"
     inkscape:window-maximized="0"
     inkscape:current-layer="g846" />
  <defs
     id="defs830">
    <linearGradient
       id="linearGradient1447">
      <stop
         offset="0"
         stop-color="#2336fb"
         stop-opacity=".753"
         id="stop1443"
         style="stop-color:#232bfb;stop-opacity:0.82203382" />
      <stop
         offset="1"
         stop-color="#23f9fb"
         stop-opacity=".533"
         id="stop1445"
         style="stop-color:#23f9fb;stop-opacity:0.73305082" />
    </linearGradient>
    <linearGradient
       id="prefix__a">
      <stop
         offset="0"
         stop-color="#2336fb"
         stop-opacity=".753"
         id="stop824" />
      <stop
         offset="1"
         stop-color="#23f9fb"
         stop-opacity=".533"
         id="stop826" />
    </linearGradient>
    <linearGradient
       xlink:href="#linearGradient1447"
       id="prefix__b"
       x1="36.248"
       y1="64.477"
       x2="139.34029"
       y2="183.82713"
       gradientUnits="userSpaceOnUse"
       gradientTransform="translate(30 99.205)" />
    <linearGradient
       xlink:href="#prefix__a"
       id="prefix__b-2"
       x1="36.248001"
       y1="64.476997"
       x2="126.056"
       y2="198.621"
       gradientUnits="userSpaceOnUse"
       gradientTransform="translate(29.999996,99.205003)" />
  </defs>
  <g
     transform="translate(-30 -99.205)"
     paint-order="stroke markers fill"
     id="g846">
    <rect
       width="144.70799"
       height="144.70799"
       x="32.646"
       y="101.85"
       rx="10"
       ry="10"
       fill="url(#prefix__b)"
       stroke="#000000"
       stroke-width="5.292"
       stroke-linecap="round"
       stroke-linejoin="round"
       stroke-opacity="0.993"
       id="rect832"
       style="stroke:none;fill:url(#prefix__b)" />
    <path
       style="font-variation-settings:normal;-inkscape-stroke:none"
       d="M99.026 177.689c-3.667-.012-7.47.906-10.071 2.623l-15.408 10.17c-2.81 1.857-3.096 1.201-2.924 7.113-.038 7.481-.11 9.066 3.653 11.095l31.023 11.838c4.646 1.413 7.442 1.662 11.696-.529l19.086-11.335c3.36-2.77 3.282-3.76 3.27-8.765.026-5.19.833-7.566-3.999-9.442l-30.164-11.716c-1.812-.704-3.962-1.045-6.162-1.052z"
       fill="#303333"
       fill-rule="evenodd"
       id="path834" />
    <rect
       style="font-variation-settings:normal;-inkscape-stroke:none"
       width="9.675"
       height="39.295"
       x="100.162"
       y="153.282"
       rx="8"
       ry="2"
       fill="#b3b3b3"
       fill-rule="evenodd"
       id="rect836" />
    <circle
       cx="105"
       cy="141.543"
       r="15"
       fill="red"
       id="circle838" />
    <path
       d="M103.225 156.543l-.436 35.975s24.311 7.497 24.338 8.226c.012.316-14.802 7.813-14.802 7.813-1.054.762-.578 11.21-.576 12.972 0 0-2.916.643-8.188-1.432-5.271-2.075-29.3-11.387-29.3-11.387-.359-.15-3.482-1.166-3.673-5.877-.186-4.605.137-9.59.137-9.59l41.147 15.443s.204-.492.045-.591c-1.093-.684-41.371-15.235-41.352-15.815 0 0 5.808-3.545 5.505-3.548-.303-.003 24.023 2.103 24.023 2.103l.187-35.15z"
       fill="#fffbfe"
       fill-opacity=".303"
       id="path840" />
    <path
       d="M103.225 156.543c-6.016-1.534-10.582-3.815-12.856-11.734-1.462-9.95 3.073-12.334 8.244-11.21 5.703 1.32 4.806 13.822 4.612 22.944z"
       fill="#fffbfe"
       fill-opacity=".488"
       id="path842" />
    <path
       d="M118.729 147.66s-3.138 6.666-9.229 8.088l-.002 24.54 24.195 9.34c4.664 1.8 4.585 2.788 5.393 3.788-.434-.004-7.045 5.293-7.511 5.183l-24.738-5.865c-.823-.647.599-36.473.599-36.473 10.932-11.532 1.702-25.786 1.283-29.237 11.853 3.941 12.335 14.07 10.01 20.637z"
       fill="#00000e"
       fill-opacity=".279"
       id="path844" />
  </g>
</svg>
