<?xml version="1.0" standalone="no"?>
<!DOCTYPE svg PUBLIC "-//W3C//DTD SVG 20010904//EN"
 "http://www.w3.org/TR/2001/REC-SVG-20010904/DTD/svg10.dtd">
<svg version="1.0" xmlns="http://www.w3.org/2000/svg"
 width="700.000000pt" height="700.000000pt" viewBox="0 0 700.000000 700.000000"
 preserveAspectRatio="xMidYMid meet">
<metadata>
Created by potrace 1.14, written by Peter Selinger 2001-2017
</metadata>
<g transform="translate(0.000000,700.000000) scale(0.100000,-0.100000)"
fill="#000000" stroke="none">
<path d="M3344 6265 c-38 -7 -81 -16 -95 -21 -13 -4 -26 -9 -29 -9 -96 -26
-246 -120 -338 -212 -131 -132 -217 -300 -248 -488 -8 -48 -9 -194 -1 -250 27
-201 152 -426 304 -548 32 -26 64 -52 71 -58 17 -14 187 -99 199 -99 7 0 10
-234 10 -642 l0 -643 -76 0 c-84 0 -189 -11 -266 -28 -103 -24 -157 -43 -240
-85 -49 -25 -110 -64 -655 -423 -146 -96 -300 -197 -343 -225 -122 -77 -123
-78 -138 -169 -12 -71 -4 -580 10 -638 33 -138 99 -200 288 -273 65 -24 127
-49 138 -54 11 -6 34 -14 50 -19 17 -5 77 -28 135 -51 58 -22 175 -67 260 -99
85 -33 169 -65 185 -71 17 -7 40 -16 53 -21 12 -5 32 -13 45 -18 12 -5 49 -19
82 -31 33 -12 68 -26 77 -31 10 -5 22 -9 27 -9 5 0 26 -8 47 -17 22 -9 48 -18
59 -20 10 -2 22 -8 26 -14 3 -6 9 -10 13 -10 6 0 26 -5 54 -16 9 -3 19 -7 22
-7 3 -1 10 -4 15 -7 6 -4 25 -10 43 -14 19 -4 30 -11 26 -17 -4 -6 -2 -8 3 -5
12 8 73 -11 73 -23 0 -4 12 -8 26 -8 15 0 29 -3 33 -8 3 -5 13 -10 21 -12 8
-1 24 -7 35 -11 17 -8 50 -21 65 -26 3 -1 18 -7 33 -13 16 -7 35 -12 43 -12 8
0 14 -4 14 -8 0 -5 6 -9 13 -9 6 0 32 -6 57 -13 285 -79 462 -55 710 95 47 29
195 118 330 197 135 80 261 155 280 167 19 11 52 31 74 43 21 13 46 28 55 33
9 6 81 48 158 94 199 118 276 195 308 305 15 50 18 107 19 330 1 293 -4 326
-51 389 -28 36 -151 117 -178 117 -7 0 -16 4 -19 9 -3 4 -26 14 -51 21 -25 7
-48 17 -51 21 -3 5 -14 9 -25 9 -10 0 -19 4 -19 8 0 5 -6 9 -14 9 -11 0 -122
40 -201 73 -21 9 -144 57 -490 190 -115 45 -266 103 -335 130 -69 26 -162 62
-206 79 l-82 32 2 722 1 722 71 31 c237 104 424 323 489 573 127 493 -179 982
-680 1087 -59 12 -251 12 -321 -1z"/>
</g>
</svg>
