<svg width="147mm" height="136mm" viewBox="0 0 147 136" xmlns="http://www.w3.org/2000/svg"><g transform="rotate(-160.932 10.988 -13.194)" paint-order="stroke markers fill"><circle cx="-18.881" cy="-54.267" r="7" fill="#edf0f2"/><circle cx="-18.881" cy="-71.267" r="7" fill="#edf0f2"/><circle cx="-18.881" cy="-88.267" r="7" fill="#edf0f2"/><circle cx="-35.881" cy="-71.267" r="7" fill="#edf0f2"/><circle cx="-35.881" cy="-54.267" r="7" fill="#edf0f2"/><circle cx="-35.881" cy="-37.267" r="7" fill="#edf0f2"/><circle cx="-52.881" cy="-37.267" r="7" fill="#edf0f2"/><circle cx="-69.881" cy="-37.267" r="7" fill="#edf0f2"/><circle cx="-86.881" cy="-20.267" r="7" fill="#edf0f2"/><circle cx="-103.881" cy="-20.267" r="7" fill="#edf0f2"/><circle cx="-120.881" cy="-20.267" r="7" fill="#edf0f2"/><circle cx="-120.881" cy="-37.267" r="7" fill="#edf0f2"/><circle cx="-103.881" cy="-37.267" r="7" fill="#edf0f2"/><circle cx="-86.881" cy="-37.267" r="7" fill="#edf0f2"/><circle cx="-103.881" cy="-54.267" r="7" fill="#edf0f2"/><circle cx="-120.881" cy="-54.267" r="7" fill="#edf0f2"/><circle cx="-120.881" cy="-71.267" r="7" fill="#edf0f2"/><circle cx="-103.881" cy="-71.267" r="7" fill="#edf0f2"/><circle cx="-103.881" cy="-88.267" r="7" fill="#edf0f2"/><circle cx="-120.881" cy="-88.267" r="7" fill="#edf0f2"/><circle cx="-86.881" cy="-54.267" r="7" fill="#ffcd36"/><circle cx="-69.881" cy="-54.267" r="7" fill="#ffcd36"/><circle cx="-52.881" cy="-54.267" r="7" fill="#ff4132"/><circle cx="-52.881" cy="-71.267" r="7" fill="#ffcd36"/><circle cx="-52.881" cy="-88.267" r="7" fill="#ff4132"/><circle cx="-35.881" cy="-88.267" r="7" fill="#ffcd36"/><circle cx="-69.881" cy="-88.267" r="7" fill="#ffcd36"/><circle cx="-69.881" cy="-71.267" r="7" fill="#ff4132"/><circle cx="-86.881" cy="-71.267" r="7" fill="#ff4132"/><circle cx="-86.881" cy="-88.267" r="7" fill="#ff4132"/></g></svg>