<?xml version="1.0" encoding="UTF-8" standalone="no"?>
<svg
   width="340mm"
   height="200mm"
   viewBox="0 0 340 200"
   version="1.1"
   id="svg35"
   sodipodi:docname="letsplay.svg"
   inkscape:version="1.1 (c4e8f9e, 2021-05-24)"
   xmlns:inkscape="http://www.inkscape.org/namespaces/inkscape"
   xmlns:sodipodi="http://sodipodi.sourceforge.net/DTD/sodipodi-0.dtd"
   xmlns:xlink="http://www.w3.org/1999/xlink"
   xmlns="http://www.w3.org/2000/svg"
   xmlns:svg="http://www.w3.org/2000/svg">
  <sodipodi:namedview
     id="namedview37"
     pagecolor="#ffffff"
     bordercolor="#666666"
     borderopacity="1.0"
     inkscape:pageshadow="2"
     inkscape:pageopacity="0.0"
     inkscape:pagecheckerboard="0"
     inkscape:document-units="mm"
     showgrid="false"
     width="300mm"
     inkscape:zoom="0.48505201"
     inkscape:cx="564.88788"
     inkscape:cy="566.94951"
     inkscape:window-width="1792"
     inkscape:window-height="992"
     inkscape:window-x="0"
     inkscape:window-y="25"
     inkscape:window-maximized="0"
     inkscape:current-layer="svg35" />
  <defs
     id="defs15">
    <linearGradient
       id="prefix__a">
      <stop
         offset="0"
         stop-color="#2336fb"
         stop-opacity=".753"
         id="stop9" />
      <stop
         offset="1"
         stop-color="#23f9fb"
         stop-opacity=".533"
         id="stop11" />
    </linearGradient>
    <linearGradient
       xlink:href="#prefix__a"
       id="prefix__b"
       x1="79.660004"
       y1="124.455"
       x2="166.612"
       y2="276.87701"
       gradientUnits="userSpaceOnUse"
       gradientTransform="translate(-65,48.499496)" />
  </defs>
  <g
     paint-order="stroke markers fill"
     id="g33"
     transform="translate(65,-48.499496)">
    <rect
       width="100"
       height="178.82899"
       x="55"
       y="59.084999"
       rx="10"
       ry="10"
       fill="url(#prefix__b)"
       stroke="#000000"
       stroke-width="5.292"
       stroke-linecap="round"
       stroke-linejoin="round"
       stroke-opacity="0.993"
       id="rect17"
       style="fill:url(#prefix__b)" />
    <path
       style="font-variation-settings:normal;-inkscape-stroke:none"
       d="m 99.026,177.689 c -3.667,-0.012 -7.47,0.906 -10.071,2.623 l -15.408,10.17 c -2.81,1.857 -3.096,1.201 -2.924,7.113 -0.038,7.481 -0.11,9.066 3.653,11.095 l 31.023,11.838 c 4.646,1.413 7.442,1.662 11.696,-0.529 l 19.086,-11.335 c 3.36,-2.77 3.282,-3.76 3.27,-8.765 0.026,-5.19 0.833,-7.566 -3.999,-9.442 l -30.164,-11.716 c -1.812,-0.704 -3.962,-1.045 -6.162,-1.052 z"
       fill="#303333"
       fill-rule="evenodd"
       id="path19" />
    <rect
       style="font-variation-settings:normal;-inkscape-stroke:none"
       width="9.6750002"
       height="39.294998"
       x="100.162"
       y="153.282"
       rx="8"
       ry="2"
       fill="#b3b3b3"
       fill-rule="evenodd"
       id="rect21" />
    <circle
       cx="105"
       cy="141.543"
       r="15"
       fill="#ff0000"
       id="circle23" />
    <rect
       style="font-variation-settings:normal;-inkscape-stroke:none"
       width="29.475"
       height="8.7799997"
       x="90.262001"
       y="56.691002"
       rx="2"
       ry="2"
       fill="#030000"
       fill-rule="evenodd"
       id="rect25" />
    <path
       d="m 103.225,156.543 -0.436,35.975 c 0,0 24.311,7.497 24.338,8.226 0.012,0.316 -14.802,7.813 -14.802,7.813 -1.054,0.762 -0.578,11.21 -0.576,12.972 0,0 -2.916,0.643 -8.188,-1.432 -5.271,-2.075 -29.3,-11.387 -29.3,-11.387 -0.359,-0.15 -3.482,-1.166 -3.673,-5.877 -0.186,-4.605 0.137,-9.59 0.137,-9.59 l 41.147,15.443 c 0,0 0.204,-0.492 0.045,-0.591 -1.093,-0.684 -41.371,-15.235 -41.352,-15.815 0,0 5.808,-3.545 5.505,-3.548 -0.303,-0.003 24.023,2.103 24.023,2.103 l 0.187,-35.15 z"
       fill="#fffbfe"
       fill-opacity="0.303"
       id="path27" />
    <path
       d="m 103.225,156.543 c -6.016,-1.534 -10.582,-3.815 -12.856,-11.734 -1.462,-9.95 3.073,-12.334 8.244,-11.21 5.703,1.32 4.806,13.822 4.612,22.944 z"
       fill="#fffbfe"
       fill-opacity="0.488"
       id="path29" />
    <path
       d="m 118.729,147.66 c 0,0 -3.138,6.666 -9.229,8.088 l -0.002,24.54 24.195,9.34 c 4.664,1.8 4.585,2.788 5.393,3.788 -0.434,-0.004 -7.045,5.293 -7.511,5.183 l -24.738,-5.865 c -0.823,-0.647 0.599,-36.473 0.599,-36.473 10.932,-11.532 1.702,-25.786 1.283,-29.237 11.853,3.941 12.335,14.07 10.01,20.637 z"
       fill="#00000e"
       fill-opacity="0.279"
       id="path31" />
  </g>
</svg>
