<?xml version="1.0" encoding="UTF-8" standalone="no"?>
<!-- Created with Inkscape (http://www.inkscape.org/) -->

<svg
   width="140mm"
   height="140mm"
   viewBox="0 0 140 140"
   version="1.1"
   id="svg5"
   inkscape:version="1.1 (c4e8f9e, 2021-05-24)"
   sodipodi:docname="memory_p.svg"
   xmlns:inkscape="http://www.inkscape.org/namespaces/inkscape"
   xmlns:sodipodi="http://sodipodi.sourceforge.net/DTD/sodipodi-0.dtd"
   xmlns="http://www.w3.org/2000/svg"
   xmlns:svg="http://www.w3.org/2000/svg">
  <sodipodi:namedview
     id="namedview7"
     pagecolor="#ffffff"
     bordercolor="#666666"
     borderopacity="1.0"
     inkscape:pageshadow="2"
     inkscape:pageopacity="0.0"
     inkscape:pagecheckerboard="0"
     inkscape:document-units="mm"
     showgrid="false"
     inkscape:zoom="0.82587375"
     inkscape:cx="331.76984"
     inkscape:cy="418.95023"
     inkscape:window-width="1792"
     inkscape:window-height="992"
     inkscape:window-x="0"
     inkscape:window-y="25"
     inkscape:window-maximized="0"
     inkscape:current-layer="g39" />
  <defs
     id="defs2" />
  <g
     inkscape:label="Livello 1"
     inkscape:groupmode="layer"
     id="layer1">
    <g
       id="g39"
       transform="translate(-11.90316,79.989237)">
      <rect
         style="fill:#edeff1;fill-opacity:1;stroke-width:0;stroke-linecap:round;stroke-linejoin:round;paint-order:stroke markers fill"
         id="rect1447"
         width="27"
         height="27"
         x="9.4998055"
         y="-105.8228"
         rx="2"
         ry="2"
         transform="rotate(26.724475)" />
      <rect
         style="fill:#edeff1;fill-opacity:1;stroke-width:0;stroke-linecap:round;stroke-linejoin:round;paint-order:stroke markers fill"
         id="rect1447-4"
         width="27"
         height="27"
         x="39.499802"
         y="-105.8228"
         rx="2"
         ry="2"
         transform="rotate(26.724475)" />
      <rect
         style="fill:#edeff1;fill-opacity:1;stroke-width:0;stroke-linecap:round;stroke-linejoin:round;paint-order:stroke markers fill"
         id="rect1447-4-7"
         width="27"
         height="27"
         x="69.499802"
         y="-105.8228"
         rx="2"
         ry="2"
         transform="rotate(26.724475)" />
      <rect
         style="fill:#edeff1;fill-opacity:1;stroke-width:0;stroke-linecap:round;stroke-linejoin:round;paint-order:stroke markers fill"
         id="rect1447-4-7-8"
         width="27"
         height="27"
         x="99.499794"
         y="-105.8228"
         rx="2"
         ry="2"
         transform="rotate(26.724475)" />
      <rect
         style="fill:#64c654;fill-opacity:1;stroke-width:0;stroke-linecap:round;stroke-linejoin:round;paint-order:stroke markers fill"
         id="rect1447-3"
         width="27"
         height="27"
         x="9.4998055"
         y="-75.822792"
         rx="2"
         ry="2"
         transform="rotate(26.724475)" />
      <rect
         style="fill:#eb503e;fill-opacity:1;stroke-width:0;stroke-linecap:round;stroke-linejoin:round;paint-order:stroke markers fill"
         id="rect1447-4-9"
         width="27"
         height="27"
         x="39.499809"
         y="-75.822792"
         rx="2"
         ry="2"
         transform="rotate(26.724475)" />
      <rect
         style="fill:#edeff1;fill-opacity:1;stroke-width:0;stroke-linecap:round;stroke-linejoin:round;paint-order:stroke markers fill"
         id="rect1447-4-7-5"
         width="27"
         height="27"
         x="69.499809"
         y="-75.822792"
         rx="2"
         ry="2"
         transform="rotate(26.724475)" />
      <rect
         style="fill:#edeff1;fill-opacity:1;stroke-width:0;stroke-linecap:round;stroke-linejoin:round;paint-order:stroke markers fill"
         id="rect1447-4-7-8-9"
         width="27"
         height="27"
         x="99.499794"
         y="-75.822792"
         rx="2"
         ry="2"
         transform="rotate(26.724475)" />
      <rect
         style="fill:#edeff1;fill-opacity:1;stroke-width:0;stroke-linecap:round;stroke-linejoin:round;paint-order:stroke markers fill"
         id="rect1447-3-1"
         width="27"
         height="27"
         x="9.4998055"
         y="-45.822796"
         rx="2"
         ry="2"
         transform="rotate(26.724475)" />
      <rect
         style="fill:#64c654;fill-opacity:1;stroke-width:0;stroke-linecap:round;stroke-linejoin:round;paint-order:stroke markers fill"
         id="rect1447-4-9-9"
         width="27"
         height="27"
         x="39.499809"
         y="-45.822796"
         rx="2"
         ry="2"
         transform="rotate(26.724475)" />
      <rect
         style="fill:#eb503e;fill-opacity:1;stroke-width:0;stroke-linecap:round;stroke-linejoin:round;paint-order:stroke markers fill"
         id="rect1447-4-7-5-2"
         width="27"
         height="27"
         x="69.499809"
         y="-45.822796"
         rx="2"
         ry="2"
         transform="rotate(26.724475)" />
      <rect
         style="fill:#edeff1;fill-opacity:1;stroke-width:0;stroke-linecap:round;stroke-linejoin:round;paint-order:stroke markers fill"
         id="rect1447-4-7-8-9-2"
         width="27"
         height="27"
         x="99.499794"
         y="-45.822796"
         rx="2"
         ry="2"
         transform="rotate(26.724475)" />
      <rect
         style="fill:#64c654;fill-opacity:1;stroke-width:0;stroke-linecap:round;stroke-linejoin:round;paint-order:stroke markers fill"
         id="rect1447-3-4"
         width="27"
         height="27"
         x="9.4998055"
         y="-15.822792"
         rx="2"
         ry="2"
         transform="rotate(26.724475)" />
      <rect
         style="fill:#edeff1;fill-opacity:1;stroke-width:0;stroke-linecap:round;stroke-linejoin:round;paint-order:stroke markers fill"
         id="rect1447-4-9-8"
         width="27"
         height="27"
         x="39.499802"
         y="-15.822792"
         rx="2"
         ry="2"
         transform="rotate(26.724475)" />
      <rect
         style="fill:#64c654;fill-opacity:1;stroke-width:0;stroke-linecap:round;stroke-linejoin:round;paint-order:stroke markers fill"
         id="rect1447-4-7-5-8"
         width="27"
         height="27"
         x="69.499802"
         y="-15.822792"
         rx="2"
         ry="2"
         transform="rotate(26.724475)" />
      <rect
         style="fill:#edeff1;fill-opacity:1;stroke-width:0;stroke-linecap:round;stroke-linejoin:round;paint-order:stroke markers fill"
         id="rect1447-4-7-8-9-0"
         width="27"
         height="27"
         x="99.499779"
         y="-15.822792"
         rx="2"
         ry="2"
         transform="rotate(26.724475)" />
      <path
         id="path9077"
         style="fill:#ffffff;fill-opacity:1;stroke-width:0;stroke-linecap:round;stroke-linejoin:round;paint-order:stroke markers fill"
         d="M 89.492846,6.1328385 91.991744,7.390991 C 92.279524,6.7798304 91.654647,6.5208167 91.134495,6.7586171 91.362279,6.2432691 90.933041,6.2048816 90.535294,6.4065924 89.800026,5.8354471 89.96576,5.3170356 89.492847,6.1328367 Z m 1.117752,0.9214731 c -0.06101,-0.030703 -0.138312,-0.036319 -0.252521,-0.027048 -0.161709,0.013132 -0.228675,-0.010989 -0.617355,-0.2228837 -0.261694,-0.121682 -0.371665,-0.3448667 -0.534059,-0.073337 -0.09432,0.1577584 -0.119926,0.1683685 -0.653174,0.2745849 -0.476336,0.1017864 -0.564764,0.131544 -0.761605,0.5098506 -0.541406,0.206165 -1.226984,0.06117 -1.438928,0.603336 -0.362609,0.802923 -0.682271,1.418257 -1.089172,2.2264292 1.924405,1.253971 3.647051,2.022745 5.646897,3.041565 0.469188,-0.480449 0.66962,-0.948988 0.860431,-1.327369 0.291824,-0.458642 0.452947,-0.856933 0.473911,-1.382537 0.03418,-0.488546 -0.08973,-0.576205 -0.407087,-0.8737792 -0.02825,-0.02862 0.0061,-0.136168 0.105863,-0.334342 0.224034,-0.316216 0.05867,-0.47942 -0.09552,-0.804277 -0.233125,-0.491966 -0.239528,-0.518609 -0.168873,-0.688472 0.164882,-0.268332 -0.165391,-0.28765 -0.382965,-0.388369 -0.41265,-0.1912594 -0.463314,-0.2250981 -0.532407,-0.3560024 -0.04796,-0.090873 -0.09267,-0.1467746 -0.153653,-0.1774533 z m -1.828641,0.6327632 1.197754,0.603049 c 0.65872,0.331654 1.190741,0.61639 1.182644,0.633048 -0.04142,0.164979 -0.0602,0.294575 -0.09077,0.469803 l -1.326993,-0.668118 c -1.118904,-0.563349 -1.319107,-0.674896 -1.277181,-0.713048 0.114789,-0.111912 0.202271,-0.206281 0.314542,-0.324734 z m -1.499661,0.753849 2.090424,1.052493 2.089956,1.0522572 c -0.100181,0.125593 -0.228225,0.242929 -0.3291,0.337659 L 89.179101,9.8917858 c -1.074975,-0.545373 -2.001643,-1.025046 -2.058949,-1.065575 -0.115846,-0.233819 -0.02712,-0.246266 0.16218,-0.385269 z m 1.479768,2.3251072 c 0.63559,-0.05194 1.106672,0.198308 1.467607,0.546252 0.281585,0.290335 0.603206,0.36246 0.412776,0.740687 l -0.117821,0.234011 -2.12688,-1.070848 -2.127348,-1.071083 c 0.264114,-0.6457662 0.420765,-0.5918792 0.840201,-0.2220812 0.775344,-0.106117 1.214492,0.3600642 1.651465,0.8430622 z"
         sodipodi:nodetypes="ccccccccccccccccccccccccccsccsccccccsccccccccccsc" />
      <path
         style="fill:#ffffff;fill-opacity:1;stroke-width:0;stroke-linecap:round;stroke-linejoin:round;paint-order:stroke markers fill"
         d="m 72.297442,-31.147255 c -0.416594,-0.891897 -0.08441,-1.887143 0.749092,-2.244324 0.281943,-0.120825 0.641342,-0.199028 0.798646,-0.173791 0.177783,0.02853 0.342897,-0.06706 0.436307,-0.25259 0.295073,-0.586065 0.71934,-0.831264 1.391415,-0.804143 1.20838,0.04877 1.954957,0.707544 1.844526,1.62761 -0.04635,0.386174 0.02195,0.574405 0.28239,0.778129 0.521269,0.407767 0.725462,0.861467 0.641562,1.425527 -0.105312,0.708077 -0.731714,1.380366 -1.53241,1.644821 l -0.627488,0.207226 -1.933228,-0.978386 c -1.323656,-0.669908 -1.970301,-1.057744 -2.050807,-1.230089 z m 4.337393,1.439381 c 0.381669,-0.0095 0.988794,-0.616679 1.096328,-1.096369 0.103742,-0.462754 -0.150167,-0.957023 -0.610762,-1.188924 -0.234808,-0.118222 -0.317195,-0.241802 -0.250074,-0.375115 0.146321,-0.290617 -0.221834,-1.284794 -0.533973,-1.441951 -0.552878,-0.278364 -1.190469,-0.146358 -1.619689,0.33534 -0.308411,0.346134 -0.530719,0.458099 -0.897199,0.4519 -0.401591,-0.0068 -0.537129,0.07348 -0.771331,0.456832 -0.511097,0.836558 -0.358511,1.02876 1.599177,2.014423 0.929925,0.468201 1.824305,0.847938 1.987523,0.843864 z"
         id="path9266" />
      <path
         style="fill:#ffffff;fill-opacity:1;stroke-width:0;stroke-linecap:round;stroke-linejoin:round;paint-order:stroke markers fill"
         d="m 17.548132,9.2273668 c -0.02175,-0.06583 0.539667,-1.270066 1.247567,-2.6760719 1.560631,-3.0996701 1.393734,-2.9947142 3.264338,-2.0528972 0.967438,0.4870887 1.214533,0.6604456 1.196563,0.8395022 -0.01815,0.1808105 0.241184,0.3584845 1.305099,0.8941471 1.543945,0.7773502 1.538789,0.7542542 0.362836,1.6241278 l -0.770856,0.570219 0.01179,0.991557 c 0.01722,1.4485002 -0.06792,1.4794742 -1.745303,0.6349392 -0.786233,-0.3958542 -1.389574,-0.7678442 -1.397784,-0.8617952 -0.0079,-0.09091 -0.493329,-0.406419 -1.078638,-0.701112 l -1.064198,-0.535805 -0.346889,0.688978 c -0.273786,0.543784 -0.409908,0.690553 -0.645938,0.696445 -0.164475,0.0041 -0.316838,-0.0464 -0.338581,-0.112229 z m 5.870166,0.384088 c 0.03398,-0.06749 0.06621,-0.435115 0.07162,-0.816954 0.0096,-0.678118 0.02142,-0.704407 0.507914,-1.131303 0.273941,-0.2403777 0.561989,-0.4937654 0.640111,-0.5630824 0.104826,-0.093013 -0.07192,-0.2337538 -0.674696,-0.5372397 l -0.816734,-0.411212 -0.38878,0.5703351 C 22.321464,7.3620026 22.210109,7.4339901 22.005098,7.2085454 21.903317,7.0966185 21.978689,6.8208628 22.268276,6.2456964 L 22.674082,5.4396976 22.250417,5.2263893 C 22.0174,5.1090692 21.545366,4.9166289 21.20145,4.7987475 l -0.625298,-0.2143322 -0.7194,1.4288476 -0.719401,1.4288479 1.524453,0.817246 c 0.838449,0.449485 1.78776,0.9652 2.109585,1.14602 0.321824,0.18082 0.612931,0.273557 0.646909,0.206071 z"
         id="path9500" />
      <path
         style="fill:#ffffff;fill-opacity:1;stroke-width:0;stroke-linecap:round;stroke-linejoin:round;paint-order:stroke markers fill"
         d="m 44.360953,-43.421511 c -0.02175,-0.06583 0.539667,-1.270066 1.247567,-2.676072 1.560631,-3.09967 1.393734,-2.994714 3.264338,-2.052897 0.967438,0.487088 1.214533,0.660445 1.196563,0.839502 -0.01815,0.18081 0.241184,0.358484 1.305099,0.894147 1.543945,0.77735 1.538788,0.754254 0.362836,1.624128 l -0.770856,0.570219 0.01179,0.991556 c 0.01722,1.448501 -0.06792,1.479475 -1.745303,0.63494 -0.786233,-0.395855 -1.389574,-0.767844 -1.397785,-0.861795 -0.0079,-0.09091 -0.493328,-0.406419 -1.078637,-0.701112 l -1.064198,-0.535806 -0.346889,0.688978 c -0.273786,0.543785 -0.409909,0.690554 -0.645938,0.696445 -0.164476,0.0041 -0.316838,-0.0464 -0.338581,-0.112228 z m 5.870166,0.384088 c 0.03398,-0.06749 0.06621,-0.435115 0.07162,-0.816954 0.0096,-0.678118 0.02142,-0.704408 0.507914,-1.131303 0.273941,-0.240378 0.561989,-0.493766 0.640111,-0.563083 0.104826,-0.09301 -0.07192,-0.233753 -0.674696,-0.537239 l -0.816735,-0.411212 -0.38878,0.570335 c -0.436269,0.640004 -0.547624,0.711991 -0.752635,0.486546 -0.101781,-0.111927 -0.02641,-0.387682 0.263177,-0.962849 l 0.405807,-0.805998 -0.423665,-0.213309 c -0.233017,-0.11732 -0.705051,-0.30976 -1.048967,-0.427642 l -0.625298,-0.214332 -0.719401,1.428848 -0.7194,1.428848 1.524453,0.817246 c 0.838449,0.449485 1.78776,0.9652 2.109585,1.14602 0.321824,0.18082 0.612931,0.273557 0.646909,0.206071 z"
         id="path9500-1" />
      <path
         style="fill:#ffffff;fill-opacity:1;stroke-width:0;stroke-linecap:round;stroke-linejoin:round;paint-order:stroke markers fill"
         d="m 58.616086,-3.2250658 c -0.12305,-0.3726125 0.0655,-0.7551322 0.647943,-1.3144958 l 0.453957,-0.4359677 -0.352165,-0.9432795 c -0.455345,-1.2196685 -0.253069,-1.4043655 1.048535,-0.9573925 l 0.892414,0.3064572 0.498145,-0.4964477 c 0.61516,-0.6130467 1.174813,-0.8009737 1.387706,-0.465976 0.08204,0.1290799 0.145307,0.6202009 0.140617,1.0913784 -0.0084,0.8451026 -7.7e-5,0.8623713 0.617145,1.2772916 1.115909,0.7501513 0.97281,1.5118421 -0.299986,1.5967544 -0.538904,0.035952 -0.581111,0.068437 -0.703873,0.5417265 -0.233867,0.9015901 -0.583199,1.486548 -0.905687,1.5166122 -0.237248,0.022113 -0.386805,-0.1047228 -0.747595,-0.6340302 -0.564673,-0.8284089 -0.718758,-0.9020003 -1.63853,-0.7825842 -0.860742,0.1117558 -0.907052,0.098375 -1.038627,-0.300044 z m 2.871149,0.2087815 c 0.234181,0.3462167 0.466377,0.6160801 0.515995,0.5996971 0.04957,-0.016409 0.109227,-0.2124954 0.132257,-0.435912 0.08871,-0.8573431 0.359687,-1.1429053 1.201903,-1.2666542 l 0.784673,-0.1152849 -0.642494,-0.4025061 c -0.61098,-0.3827543 -0.646434,-0.4408899 -0.722654,-1.1849454 -0.04409,-0.4303393 -0.119703,-0.8062106 -0.168031,-0.835262 -0.04831,-0.029025 -0.264661,0.075294 -0.480731,0.231886 -0.697519,0.5054903 -1.077082,0.5554525 -1.730176,0.227745 l -0.599215,-0.300807 0.333024,0.7971738 c 0.359925,0.8615565 0.386282,0.773939 -0.550669,1.8301419 l -0.274367,0.3092928 0.887392,-0.042073 0.887391,-0.042071 0.425782,0.6294856 z"
         id="path9539" />
      <path
         style="fill:#ffffff;fill-opacity:1;stroke-width:0;stroke-linecap:round;stroke-linejoin:round;paint-order:stroke markers fill"
         d="m 72.642592,36.672201 c -0.12305,-0.372613 0.0655,-0.755133 0.647944,-1.314496 l 0.453956,-0.435968 -0.352165,-0.943279 c -0.455344,-1.219669 -0.253069,-1.404366 1.048535,-0.957393 l 0.892415,0.306457 0.498145,-0.496447 c 0.615159,-0.613047 1.174812,-0.800974 1.387705,-0.465976 0.08204,0.12908 0.145307,0.620201 0.140617,1.091378 -0.0084,0.845103 -7.7e-5,0.862371 0.617142,1.27729 1.115908,0.750151 0.97281,1.511842 -0.299986,1.596754 -0.538904,0.03595 -0.581111,0.06844 -0.703873,0.541727 -0.233868,0.90159 -0.583199,1.486548 -0.905688,1.516612 -0.237243,0.02211 -0.386801,-0.104721 -0.747591,-0.634028 -0.564673,-0.828409 -0.718758,-0.902001 -1.63853,-0.782585 -0.860742,0.111756 -0.907051,0.09837 -1.038627,-0.300044 z m 2.871149,0.208781 c 0.234173,0.346212 0.466377,0.61608 0.515995,0.599697 0.04958,-0.01641 0.109227,-0.212495 0.132258,-0.435912 0.08871,-0.857343 0.359687,-1.142905 1.201899,-1.266656 l 0.784673,-0.115285 -0.642494,-0.402506 c -0.610977,-0.382752 -0.646431,-0.440888 -0.72265,-1.184943 -0.04409,-0.43034 -0.119704,-0.806211 -0.168032,-0.835262 -0.04831,-0.02903 -0.264661,0.07529 -0.480731,0.231886 -0.697519,0.50549 -1.077082,0.555452 -1.730176,0.227745 l -0.599215,-0.300807 0.333024,0.797174 c 0.359925,0.861556 0.386282,0.773938 -0.550668,1.830141 l -0.274368,0.309293 0.887392,-0.04207 0.887391,-0.04207 0.425782,0.629485 z"
         id="path9539-3" />
    </g>
  </g>
</svg>
