<?xml version="1.0" encoding="UTF-8" standalone="no"?>
<!-- Created with Inkscape (http://www.inkscape.org/) -->

<svg
   width="140mm"
   height="140mm"
   viewBox="0 0 140 140"
   version="1.1"
   id="svg5"
   inkscape:version="1.1 (c4e8f9e, 2021-05-24)"
   sodipodi:docname="memory.svg"
   xmlns:inkscape="http://www.inkscape.org/namespaces/inkscape"
   xmlns:sodipodi="http://sodipodi.sourceforge.net/DTD/sodipodi-0.dtd"
   xmlns="http://www.w3.org/2000/svg"
   xmlns:svg="http://www.w3.org/2000/svg">
  <sodipodi:namedview
     id="namedview7"
     pagecolor="#ffffff"
     bordercolor="#666666"
     borderopacity="1.0"
     inkscape:pageshadow="2"
     inkscape:pageopacity="0.0"
     inkscape:pagecheckerboard="0"
     inkscape:document-units="mm"
     showgrid="false"
     inkscape:zoom="0.5585067"
     inkscape:cx="354.51679"
     inkscape:cy="626.67109"
     inkscape:window-width="1792"
     inkscape:window-height="992"
     inkscape:window-x="0"
     inkscape:window-y="25"
     inkscape:window-maximized="0"
     inkscape:current-layer="g39" />
  <defs
     id="defs2" />
  <g
     inkscape:label="Livello 1"
     inkscape:groupmode="layer"
     id="layer1">
    <g
       id="g39"
       transform="translate(-11.90316,79.989237)">
      <rect
         style="fill:#edeff1;fill-opacity:1;stroke-width:0;stroke-linecap:round;stroke-linejoin:round;paint-order:stroke markers fill"
         id="rect1447"
         width="27"
         height="27"
         x="24.478214"
         y="-67.625252"
         rx="2"
         ry="2" />
      <rect
         style="fill:#edeff1;fill-opacity:1;stroke-width:0;stroke-linecap:round;stroke-linejoin:round;paint-order:stroke markers fill"
         id="rect1447-4"
         width="27"
         height="27"
         x="54.47821"
         y="-67.625252"
         rx="2"
         ry="2" />
      <rect
         style="fill:#edeff1;fill-opacity:1;stroke-width:0;stroke-linecap:round;stroke-linejoin:round;paint-order:stroke markers fill"
         id="rect1447-4-7"
         width="27"
         height="27"
         x="84.47821"
         y="-67.625252"
         rx="2"
         ry="2" />
      <rect
         style="fill:#edeff1;fill-opacity:1;stroke-width:0;stroke-linecap:round;stroke-linejoin:round;paint-order:stroke markers fill"
         id="rect1447-4-7-8"
         width="27"
         height="27"
         x="114.4782"
         y="-67.625252"
         rx="2"
         ry="2" />
      <rect
         style="fill:#64c654;fill-opacity:1;stroke-width:0;stroke-linecap:round;stroke-linejoin:round;paint-order:stroke markers fill"
         id="rect1447-3"
         width="27"
         height="27"
         x="24.478214"
         y="-37.625252"
         rx="2"
         ry="2" />
      <rect
         style="fill:#eb503e;fill-opacity:1;stroke-width:0;stroke-linecap:round;stroke-linejoin:round;paint-order:stroke markers fill"
         id="rect1447-4-9"
         width="27"
         height="27"
         x="54.478218"
         y="-37.625252"
         rx="2"
         ry="2" />
      <rect
         style="fill:#edeff1;fill-opacity:1;stroke-width:0;stroke-linecap:round;stroke-linejoin:round;paint-order:stroke markers fill"
         id="rect1447-4-7-5"
         width="27"
         height="27"
         x="84.478218"
         y="-37.625252"
         rx="2"
         ry="2" />
      <rect
         style="fill:#edeff1;fill-opacity:1;stroke-width:0;stroke-linecap:round;stroke-linejoin:round;paint-order:stroke markers fill"
         id="rect1447-4-7-8-9"
         width="27"
         height="27"
         x="114.4782"
         y="-37.625252"
         rx="2"
         ry="2" />
      <rect
         style="fill:#edeff1;fill-opacity:1;stroke-width:0;stroke-linecap:round;stroke-linejoin:round;paint-order:stroke markers fill"
         id="rect1447-3-1"
         width="27"
         height="27"
         x="24.478214"
         y="-7.6252542"
         rx="2"
         ry="2" />
      <rect
         style="fill:#64c654;fill-opacity:1;stroke-width:0;stroke-linecap:round;stroke-linejoin:round;paint-order:stroke markers fill"
         id="rect1447-4-9-9"
         width="27"
         height="27"
         x="54.478218"
         y="-7.6252542"
         rx="2"
         ry="2" />
      <rect
         style="fill:#eb503e;fill-opacity:1;stroke-width:0;stroke-linecap:round;stroke-linejoin:round;paint-order:stroke markers fill"
         id="rect1447-4-7-5-2"
         width="27"
         height="27"
         x="84.478218"
         y="-7.6252542"
         rx="2"
         ry="2" />
      <rect
         style="fill:#edeff1;fill-opacity:1;stroke-width:0;stroke-linecap:round;stroke-linejoin:round;paint-order:stroke markers fill"
         id="rect1447-4-7-8-9-2"
         width="27"
         height="27"
         x="114.4782"
         y="-7.6252542"
         rx="2"
         ry="2" />
      <rect
         style="fill:#64c654;fill-opacity:1;stroke-width:0;stroke-linecap:round;stroke-linejoin:round;paint-order:stroke markers fill"
         id="rect1447-3-4"
         width="27"
         height="27"
         x="24.478214"
         y="22.37475"
         rx="2"
         ry="2" />
      <rect
         style="fill:#edeff1;fill-opacity:1;stroke-width:0;stroke-linecap:round;stroke-linejoin:round;paint-order:stroke markers fill"
         id="rect1447-4-9-8"
         width="27"
         height="27"
         x="54.47821"
         y="22.37475"
         rx="2"
         ry="2" />
      <rect
         style="fill:#64c654;fill-opacity:1;stroke-width:0;stroke-linecap:round;stroke-linejoin:round;paint-order:stroke markers fill"
         id="rect1447-4-7-5-8"
         width="27"
         height="27"
         x="84.47821"
         y="22.37475"
         rx="2"
         ry="2" />
      <rect
         style="fill:#edeff1;fill-opacity:1;stroke-width:0;stroke-linecap:round;stroke-linejoin:round;paint-order:stroke markers fill"
         id="rect1447-4-7-8-9-0"
         width="27"
         height="27"
         x="114.47819"
         y="22.37475"
         rx="2"
         ry="2" />
      <path
         id="path9077"
         style="fill:#ffffff;fill-opacity:1;stroke-width:0;stroke-linecap:round;stroke-linejoin:round;paint-order:stroke markers fill"
         d="m 97.669514,3.430282 h 2.797756 c -0.0178,-0.675291 -0.692406,-0.625629 -1.050056,-0.179318 -0.0283,-0.562733 -0.42895,-0.403991 -0.6935,-0.04496 -0.91357,-0.179485 -0.99867,-0.71705 -1.0542,0.224276 z m 1.41274,0.320387 c -0.0683,1.3e-5 -0.13987,0.02976 -0.23771,0.0894 -0.13853,0.08445 -0.20919,0.09302 -0.65164,0.07855 -0.28846,0.009 -0.48705,-0.14089 -0.50999,0.174664 -0.0133,0.183322 -0.0314,0.204314 -0.45992,0.538986 -0.37968,0.305122 -0.44528,0.371467 -0.45097,0.797882 -0.39086,0.427613 -1.06841,0.606409 -1.0139,1.185974 0.0372,0.88022 0.0284,1.573576 0.0284,2.478402 2.28275,0.254615 4.1671,0.166593 6.411486,0.17725 0.20301,-0.640121 0.17133,-1.148745 0.1716,-1.572514 0.0544,-0.540884 0.0192,-0.969086 -0.19844,-1.447972 -0.18917,-0.45173 -0.33926,-0.474305 -0.75654,-0.597374 -0.0381,-0.01286 -0.0558,-0.124359 -0.0558,-0.346234 0.0579,-0.383186 -0.16319,-0.454593 -0.447,-0.675409 -0.42946,-0.334577 -0.44716,-0.355495 -0.46044,-0.538986 0.0266,-0.313816 -0.27708,-0.182547 -0.516706,-0.174664 -0.45458,0.01474 -0.51505,0.0073 -0.63563,-0.07855 -0.0837,-0.0596 -0.14878,-0.08942 -0.21704,-0.0894 z m -1.34875,1.387512 h 1.341 c 0.7375,0 1.340736,0.01507 1.340996,0.03359 0.0372,0.16598 0.0787,0.290181 0.1302,0.460436 h -1.485696 c -1.25272,0 -1.4817,-0.0096 -1.46141,-0.06253 0.0522,-0.151579 0.0879,-0.275208 0.13491,-0.431496 z m -1.00046,1.347721 h 2.34043 2.339906 c -0.033,0.157228 -0.0946,0.319612 -0.1421,0.449586 l -2.191596,-0.0067 c -1.2054,-0.0037 -2.24879,-0.01541 -2.3182,-0.02584 -0.20862,-0.156746 -0.13497,-0.207763 -0.0284,-0.417046 z m 2.3673,1.411285 c 0.54434,-0.332213 1.077636,-0.320547 1.556486,-0.172083 0.38207,0.132692 0.70177,0.05248 0.70177,0.475941 v 0.261998 h -2.381246 -2.38177 c -0.0545,-0.695557 0.10965,-0.717872 0.65058,-0.576197 0.6448,-0.443454 1.24668,-0.224556 1.85418,0.010341 z"
         sodipodi:nodetypes="ccccccccccccccccccccccccccsccsccccccsccccccccccsc" />
      <path
         style="fill:#ffffff;fill-opacity:1;stroke-width:0;stroke-linecap:round;stroke-linejoin:round;paint-order:stroke markers fill"
         d="m 65.546054,-22.134745 c -0.77318,-0.609282 -0.92404,-1.6476 -0.3402,-2.341451 0.19749,-0.234709 0.48333,-0.46618 0.63518,-0.514379 0.17162,-0.05447 0.27611,-0.214101 0.27611,-0.421815 0,-0.656156 0.26868,-1.065956 0.88116,-1.343964 1.10123,-0.499853 2.06431,-0.247182 2.37943,0.624263 0.13226,0.365768 0.27792,0.503174 0.60215,0.568018 0.64896,0.129794 1.03537,0.443204 1.21409,0.98474 0.22436,0.679799 -0.0328,1.561967 -0.62904,2.158246 l -0.46727,0.467272 -2.1667,-0.0045 c -1.48352,-0.0031 -2.2355,-0.05871 -2.38491,-0.176442 z m 4.52136,-0.664903 c 0.33661,-0.180155 0.60585,-0.995466 0.48618,-1.472274 -0.11544,-0.459975 -0.5645,-0.787262 -1.08018,-0.787262 -0.26289,0 -0.39205,-0.07333 -0.39205,-0.222586 0,-0.325374 -0.77591,-1.047793 -1.12538,-1.047793 -0.619,0 -1.12912,0.40463 -1.29587,1.027893 -0.11981,0.447853 -0.26802,0.64783 -0.59814,0.807099 -0.36175,0.174524 -0.44671,0.307176 -0.4835,0.754901 -0.0803,0.977037 0.14242,1.08009 2.33424,1.08009 1.04114,0 2.01075,-0.06303 2.1547,-0.140068 z"
         id="path9266" />
      <path
         style="fill:#ffffff;fill-opacity:1;stroke-width:0;stroke-linecap:round;stroke-linejoin:round;paint-order:stroke markers fill"
         d="m 34.801591,38.547831 c -0.04903,-0.04902 -0.08913,-1.377085 -0.08913,-2.951244 0,-3.470378 -0.10187,-3.30158 1.99245,-3.30158 1.08314,0 1.381799,0.04372 1.44627,0.211731 0.0651,0.169658 0.376632,0.21173 1.567786,0.21173 1.728595,0 1.713603,-0.01831 1.054449,1.28747 l -0.432085,0.855962 0.456432,0.880337 c 0.666774,1.286026 0.604658,1.351979 -1.273336,1.351979 -0.880263,0 -1.586439,-0.06093 -1.636022,-0.141153 -0.04798,-0.07763 -0.623398,-0.141155 -1.278707,-0.141155 h -1.191472 v 0.771377 c 0,0.608819 -0.05558,0.801124 -0.263747,0.912529 -0.145061,0.07763 -0.303858,0.101042 -0.352883,0.05202 z m 5.415836,-2.296758 c 0,-0.07556 -0.136536,-0.418409 -0.303414,-0.761894 -0.296362,-0.610005 -0.297643,-0.638794 -0.05509,-1.238866 0.136581,-0.337892 0.279911,-0.693748 0.318516,-0.790792 0.0518,-0.130218 -0.16936,-0.17644 -0.844222,-0.17644 h -0.914413 l -0.09077,0.684246 c -0.101857,0.767829 -0.168944,0.882203 -0.453438,0.773034 -0.141242,-0.0542 -0.197929,-0.334394 -0.197929,-0.978348 V 32.85962 h -0.474334 c -0.260885,0 -0.769036,0.04039 -1.129226,0.08976 l -0.654889,0.08976 v 1.599732 1.599732 l 1.729126,0.0444 c 0.951019,0.02442 2.030841,0.05814 2.399604,0.07492 0.368761,0.01678 0.670476,-0.0313 0.670476,-0.106857 z"
         id="path9500" />
      <path
         style="fill:#ffffff;fill-opacity:1;stroke-width:0;stroke-linecap:round;stroke-linejoin:round;paint-order:stroke markers fill"
         d="m 35.074018,-20.534802 c -0.04903,-0.04902 -0.08913,-1.377085 -0.08913,-2.951244 0,-3.470378 -0.10187,-3.30158 1.99245,-3.30158 1.08314,0 1.381799,0.04372 1.44627,0.211731 0.0651,0.169658 0.376632,0.21173 1.567786,0.21173 1.728595,0 1.713603,-0.01831 1.054449,1.28747 l -0.432085,0.855962 0.456432,0.880337 c 0.666774,1.286026 0.604658,1.351979 -1.273336,1.351979 -0.880263,0 -1.586439,-0.06093 -1.636022,-0.141153 -0.04798,-0.07763 -0.623398,-0.141155 -1.278707,-0.141155 h -1.191472 v 0.771377 c 0,0.608819 -0.05558,0.801124 -0.263747,0.912529 -0.145061,0.07763 -0.303858,0.101042 -0.352883,0.05202 z m 5.415836,-2.296758 c 0,-0.07556 -0.136536,-0.418409 -0.303414,-0.761894 -0.296362,-0.610005 -0.297643,-0.638794 -0.05509,-1.238866 0.136581,-0.337892 0.279911,-0.693748 0.318516,-0.790792 0.0518,-0.130218 -0.16936,-0.17644 -0.844222,-0.17644 h -0.914413 l -0.09077,0.684246 c -0.101857,0.767829 -0.168944,0.882203 -0.453438,0.773034 -0.141242,-0.0542 -0.197929,-0.334394 -0.197929,-0.978348 v -0.902393 H 37.47476 c -0.260885,0 -0.769036,0.04039 -1.129226,0.08976 l -0.654889,0.08976 v 1.599732 1.599732 l 1.729126,0.0444 c 0.951019,0.02442 2.030841,0.05814 2.399604,0.07492 0.368761,0.01678 0.670476,-0.0313 0.670476,-0.106857 z"
         id="path9500-1" />
      <path
         style="fill:#ffffff;fill-opacity:1;stroke-width:0;stroke-linecap:round;stroke-linejoin:round;paint-order:stroke markers fill"
         d="m 65.882774,8.957292 c -0.27747,-0.277474 -0.28108,-0.703924 -0.0124,-1.465461 l 0.20941,-0.593542 -0.73874,-0.684149 c -0.95519,-0.884614 -0.85758,-1.140545 0.50599,-1.32665 l 0.9349,-0.127598 0.22168,-0.667433 c 0.27376,-0.824198 0.68912,-1.243727 1.02992,-1.040252 0.13132,0.0784 0.40869,0.488606 0.61639,0.911561 0.37252,0.758616 0.38774,0.770287 1.12562,0.86332 1.33405,0.168195 1.54877,0.912873 0.45012,1.561092 -0.46517,0.274457 -0.48826,0.322453 -0.38507,0.800391 0.19656,0.910452 0.1476,1.590019 -0.12692,1.761895 -0.20196,0.126441 -0.39258,0.08041 -0.95286,-0.230109 -0.87689,-0.485984 -1.04761,-0.482422 -1.81543,0.03786 -0.71854,0.486894 -0.76592,0.495768 -1.06261,0.199078 z m 2.65834,-1.104678 c 0.36486,0.203922 0.69361,0.34054 0.73056,0.303594 0.0369,-0.03695 0.002,-0.238916 -0.0779,-0.448824 -0.30631,-0.805656 -0.1927,-1.182571 0.5039,-1.671846 L 70.346684,5.5797 69.591814,5.50912 c -0.71784,-0.06711 -0.77565,-0.103092 -1.17833,-0.733391 -0.2329,-0.364545 -0.46947,-0.66626 -0.5257,-0.670475 -0.0562,-0.0042 -0.20253,0.186269 -0.3251,0.423301 -0.39569,0.765168 -0.71224,0.980483 -1.44294,0.981478 l -0.67048,7.93e-4 0.65594,0.562258 c 0.70892,0.607666 0.69306,0.517555 0.33117,1.882281 l -0.10597,0.399637 0.77368,-0.436639 0.77368,-0.436637 0.66338,0.370769 z"
         id="path9539" />
      <path
         style="fill:#ffffff;fill-opacity:1;stroke-width:0;stroke-linecap:round;stroke-linejoin:round;paint-order:stroke markers fill"
         d="m 96.352784,38.284979 c -0.27747,-0.277474 -0.28108,-0.703924 -0.0124,-1.465461 l 0.20941,-0.593542 -0.73874,-0.684149 c -0.95519,-0.884614 -0.85758,-1.140545 0.50599,-1.32665 l 0.9349,-0.127598 0.22168,-0.667433 c 0.27376,-0.824198 0.68912,-1.243727 1.02992,-1.040252 0.13132,0.0784 0.40869,0.488606 0.61639,0.911561 0.37252,0.758616 0.38774,0.770287 1.125616,0.86332 1.33405,0.168195 1.54877,0.912873 0.45012,1.561092 -0.46517,0.274457 -0.48826,0.322453 -0.38507,0.800391 0.19656,0.910452 0.1476,1.590019 -0.12692,1.761895 -0.201956,0.126441 -0.392576,0.08041 -0.952856,-0.230109 -0.87689,-0.485984 -1.04761,-0.482422 -1.81543,0.03786 -0.71854,0.486894 -0.76592,0.495768 -1.06261,0.199078 z m 2.65834,-1.104678 c 0.36485,0.203922 0.69361,0.34054 0.73056,0.303594 0.0369,-0.03695 0.002,-0.238916 -0.0779,-0.448824 -0.30631,-0.805656 -0.1927,-1.182571 0.503896,-1.671846 l 0.64901,-0.455838 -0.75487,-0.07058 c -0.717836,-0.06711 -0.775646,-0.103092 -1.178326,-0.733391 -0.2329,-0.364545 -0.46947,-0.66626 -0.5257,-0.670475 -0.0562,-0.0042 -0.20253,0.186269 -0.3251,0.423301 -0.39569,0.765168 -0.71224,0.980483 -1.44294,0.981478 l -0.67048,7.93e-4 0.65594,0.562258 c 0.70892,0.607666 0.69306,0.517555 0.33117,1.882281 l -0.10597,0.399637 0.77368,-0.436639 0.77368,-0.436637 0.66338,0.370769 z"
         id="path9539-3" />
    </g>
  </g>
</svg>
