<svg width="235.679" height="234.994" viewBox="0 0 62.357 62.176" xmlns="http://www.w3.org/2000/svg"><path d="M15.248.045c-.634-.192-1.182.27-1.313.702L10.121 13.34c-.157.56.037 1.096.702 1.312l12.845 3.891c.665.197 1.046.108 1.313-.702l3.814-12.593c.155-.538.07-1.079-.702-1.313zm16.874 5.11c-.633-.191-1.181.27-1.312.703l-3.814 12.593c-.158.56.037 1.096.702 1.313l12.845 3.89c.665.197 1.045.108 1.312-.702l3.814-12.593c.156-.538.07-1.079-.702-1.313zm16.623 5.036c-.634-.192-1.182.27-1.313.702l-3.814 12.593c-.157.56.037 1.096.703 1.312l12.844 3.89c.665.198 1.046.11 1.313-.701l3.814-12.593c.156-.538.07-1.08-.702-1.313zm-38.532 6.476c-.634-.192-1.181.27-1.312.703L5.086 29.963c-.157.56.037 1.096.703 1.312l12.845 3.89c.665.198 1.045.11 1.312-.702L23.76 21.87c.155-.538.07-1.079-.702-1.312zm16.875 5.111c-.634-.192-1.182.27-1.313.703l-3.814 12.593c-.158.56.037 1.096.702 1.312l12.845 3.89c.665.198 1.045.11 1.312-.702l3.815-12.593c.155-.538.07-1.079-.703-1.312zm16.622 5.035c-.634-.192-1.181.27-1.312.702l-3.815 12.593c-.157.56.037 1.097.703 1.313l12.845 3.89c.665.198 1.045.109 1.312-.702l3.814-12.593c.156-.538.07-1.079-.702-1.312zM5.178 33.29c-.633-.192-1.181.27-1.312.702L.052 46.585c-.158.56.036 1.097.702 1.313l12.845 3.89c.665.198 1.045.109 1.312-.702l3.814-12.593c.156-.538.07-1.079-.702-1.313zM22.053 38.4c-.634-.192-1.182.27-1.313.702l-3.814 12.593c-.157.56.037 1.097.703 1.313l12.844 3.89c.665.198 1.046.109 1.313-.702L35.6 43.604c.155-.538.07-1.079-.702-1.313zm17.126 5.187c-.633-.192-1.181.27-1.312.703l-3.815 12.593c-.157.56.038 1.096.703 1.312l12.845 3.89c.665.198 1.045.11 1.312-.702l3.814-12.592c.156-.538.07-1.08-.702-1.313z" fill="#eceef0"/><path d="M23.843 51.778c-.764-.375-1.528-1.141-1.978-1.982-1.361-2.544-.186-5.648 2.51-6.626 2.2-.799 4.615.135 5.728 2.216 1.827 3.415-.972 7.347-4.86 6.825-.665-.089-.757-.117-1.4-.433zm2.387-.929c.8-.05 1.848-.616 2.344-1.263.3-.39.395-.604.556-1.238.166-.659.175-.857.063-1.42-.338-1.697-1.95-2.826-3.726-2.608-.669.083-1.631.644-2.057 1.2-.394.514-.706 1.382-.718 1.994-.02 1.014.535 2.156 1.318 2.71.555.394 1.533.669 2.22.625zm19.378-10.611c-2.703-1.36-3.495-4.795-1.654-7.18 2.308-2.992 7.08-2.114 8.178 1.504.286.944.283 1.791-.01 2.757-.725 2.395-3.09 3.786-5.534 3.256a4.98 4.98 0 01-.98-.337zm2.411-1.035c.759-.049 1.719-.57 2.205-1.2.813-1.048.93-2.392.31-3.55-.447-.837-1.01-1.29-1.955-1.573-1.066-.32-2.066-.156-2.912.478-.64.48-.943.956-1.166 1.828-.23.899-.158 1.504.275 2.314.627 1.174 1.809 1.795 3.243 1.703zM17.315 13.442c-2.258-1.171-3.247-3.907-2.215-6.128 1.024-2.204 3.363-3.262 5.671-2.563 2.513.761 3.91 3.352 3.15 5.838-.737 2.406-3.115 3.771-5.576 3.2-.36-.083-.823-.24-1.03-.347zm2.42-.947c.755-.047 1.716-.57 2.204-1.198.437-.564.773-1.577.738-2.226-.054-.981-.591-1.978-1.363-2.528-.565-.404-1.701-.676-2.368-.569-.754.122-1.616.618-2.053 1.18-1.281 1.65-.802 4.026 1.01 5.001.479.258 1.15.382 1.832.34z" fill="#eb503e"/><path d="M10.116 28.723a.89.89 0 01-.292-.926c.085-.281.255-.397 1.796-1.223l1.703-.913-.843-1.563c-.463-.86-.868-1.691-.898-1.846-.136-.698.806-1.207 1.31-.708.114.114.583.913 1.041 1.776l.834 1.569 1.704-.91c1.546-.826 1.732-.901 2.015-.816.451.137.665.548.526 1.008-.103.339-.187.399-1.785 1.262l-1.678.906.893 1.683c.852 1.605.889 1.7.786 2.04-.16.524-.564.69-1.154.472-.093-.034-.577-.818-1.076-1.742l-.908-1.68-1.562.844c-1.276.69-2.057 1.007-2.233.907a3.532 3.532 0 01-.18-.14zm16.609 4.974c-.272-.225-.343-.714-.151-1.035.082-.138.771-.571 1.749-1.1l1.613-.872-.81-1.504c-.908-1.681-.998-1.96-.778-2.383.183-.35.713-.53 1.03-.347.116.067.59.83 1.076 1.735.479.888.91 1.628.96 1.643.048.014.766-.339 1.594-.785.828-.447 1.632-.837 1.788-.867.567-.111 1.041.48.848 1.058-.096.288-.263.403-1.738 1.194-.898.481-1.645.914-1.659.962-.014.047.37.827.853 1.732.801 1.502.87 1.674.783 1.963-.152.5-.621.687-1.194.475-.092-.034-.563-.793-1.046-1.686-.482-.893-.916-1.635-.964-1.65-.047-.014-.81.362-1.694.837-.885.474-1.704.852-1.821.84-.117-.013-.315-.107-.44-.21zm5.054-16.653c-.234-.188-.344-.581-.25-.891.066-.22.361-.415 1.785-1.184l1.706-.921-.908-1.713c-.78-1.472-.896-1.752-.824-1.99.126-.416.574-.664.98-.541.3.091.393.226 1.207 1.743.485.905.922 1.657.97 1.672.05.014.79-.349 1.645-.808.856-.459 1.682-.847 1.836-.862.393-.039.721.249.787.688.079.522-.171.74-1.892 1.651-.833.44-1.526.842-1.542.893-.015.05.352.795.817 1.655.464.86.852 1.663.862 1.784.046.54-.69.976-1.17.694-.129-.075-.583-.805-1.103-1.771l-.884-1.644-1.589.841c-1.887 1-2.02 1.037-2.433.704z" fill="#2b74d0"/></svg>