<svg width="120mm" height="120mm" viewBox="0 0 120 120" xmlns="http://www.w3.org/2000/svg"><path d="M15.141 12.672c-1.258 0-2 1.141-2 2v25c.022 1.104.671 1.973 2 2h25.5c1.318-.008 1.961-.379 2-2v-25c-.014-1.064-.468-2-2-2h-25.5zm33.5 0c-1.258 0-2 1.141-2 2v25c.022 1.104.672 1.973 2 2h25.5c1.318-.008 1.961-.379 2-2v-25c-.014-1.064-.468-2-2-2h-25.5zm33 0c-1.258 0-2 1.141-2 2v25c.022 1.104.671 1.973 2 2h25.5c1.318-.008 1.961-.379 2-2v-25c-.014-1.064-.468-2-2-2h-25.5zm-66.5 33c-1.258 0-2 1.141-2 2v25c.022 1.104.671 1.973 2 2h25.5c1.318-.008 1.961-.379 2-2v-25c-.014-1.064-.468-2-2-2h-25.5zm33.5 0c-1.258 0-2 1.141-2 2v25c.022 1.104.672 1.973 2 2h25.5c1.318-.008 1.961-.379 2-2v-25c-.014-1.064-.468-2-2-2h-25.5zm33 0c-1.258 0-2 1.141-2 2v25c.022 1.104.671 1.973 2 2h25.5c1.318-.008 1.961-.379 2-2v-25c-.014-1.064-.468-2-2-2h-25.5zm-66.5 33c-1.258 0-2 1.141-2 2v25c.022 1.104.671 1.973 2 2h25.5c1.318-.008 1.961-.379 2-2v-25c-.014-1.064-.468-2-2-2h-25.5zm33.5 0c-1.258 0-2 1.141-2 2v25c.022 1.104.672 1.973 2 2h25.5c1.318-.008 1.961-.379 2-2v-25c-.014-1.064-.468-2-2-2h-25.5zm34 0c-1.258 0-2 1.141-2 2v25c.022 1.104.672 1.973 2 2h25.5c1.318-.008 1.961-.379 2-2v-25c-.014-1.064-.468-2-2-2h-25.5z" fill="#eceef0"/><path d="M59.263 102.01c-1.594-.26-3.406-1.233-4.687-2.513-3.877-3.877-3.449-10.17.914-13.433 3.561-2.663 8.467-2.295 11.636.875 5.205 5.204 2.28 13.895-5.078 15.09-1.257.203-1.44.202-2.785-.019zm3.83-3.003c1.425-.532 3.021-2.137 3.567-3.587.33-.876.386-1.317.328-2.558-.06-1.29-.153-1.655-.667-2.616-1.55-2.901-5.103-4.066-8.21-2.69-1.173.517-2.613 2.067-3.081 3.314-.433 1.151-.523 2.9-.208 4.02.521 1.856 2.16 3.627 3.89 4.205 1.225.409 3.156.37 4.38-.088zM92.485 69.04c-5.664-.984-8.995-6.795-6.962-12.146 2.55-6.711 11.71-7.743 15.7-1.768 1.04 1.558 1.501 3.1 1.501 5.017 0 4.756-3.533 8.587-8.271 8.97-.582.046-1.468.014-1.968-.073zm3.815-3.21c1.353-.507 2.81-1.984 3.35-3.395.9-2.356.373-4.864-1.39-6.628-1.277-1.276-2.548-1.788-4.425-1.784-2.114.005-3.843.855-5.031 2.475-.9 1.225-1.19 2.256-1.114 3.964.077 1.762.542 2.823 1.775 4.058 1.788 1.79 4.277 2.266 6.835 1.31zM26.278 35.895c-4.75-.887-8.055-5.317-7.402-9.924.648-4.572 4.32-7.783 8.902-7.783 4.987 0 8.955 3.94 8.941 8.88-.013 4.781-3.586 8.573-8.377 8.89-.698.047-1.627.018-2.064-.063zm3.88-3.056c1.347-.501 2.806-1.98 3.347-3.39.486-1.268.539-3.296.117-4.455-.64-1.756-2.164-3.272-3.87-3.848-1.25-.422-3.467-.292-4.62.27-1.304.637-2.6 2.013-3.084 3.276-1.421 3.707.76 7.763 4.591 8.539 1.014.205 2.3.062 3.519-.392z" fill="#eb503e"/><path d="M21.604 67.648c-.614-.251-1.04-.876-1.04-1.524 0-.557.245-.861 2.592-3.213l2.594-2.597-2.394-2.38c-1.316-1.308-2.509-2.596-2.65-2.862-.632-1.192.802-2.637 1.992-2.007.271.144 1.564 1.339 2.873 2.655l2.378 2.394 2.598-2.593c2.358-2.354 2.654-2.593 3.216-2.593.895 0 1.511.63 1.511 1.543 0 .672-.12.828-2.551 3.278L30.17 60.32l2.552 2.568c2.432 2.45 2.551 2.602 2.551 3.276 0 1.041-.645 1.565-1.839 1.494-.186-.011-1.498-1.17-2.915-2.576l-2.576-2.555-2.376 2.397c-1.94 1.957-3.185 2.963-3.561 2.879a6.686 6.686 0 01-.403-.156zm32.942-.104c-.618-.26-1.017-1.11-.845-1.798.074-.296 1.088-1.463 2.575-2.963l2.453-2.475-2.303-2.288c-2.575-2.558-2.892-3.013-2.725-3.905.138-.738 1.004-1.356 1.682-1.199.246.058 1.53 1.186 2.912 2.562 1.36 1.353 2.551 2.46 2.649 2.46.097 0 1.207-1.038 2.467-2.306s2.508-2.42 2.774-2.561c.97-.514 2.158.3 2.126 1.456-.017.577-.258.878-2.505 3.129-1.367 1.37-2.486 2.568-2.486 2.662 0 .095 1.127 1.302 2.505 2.682 2.284 2.288 2.504 2.564 2.504 3.138 0 .992-.75 1.59-1.908 1.52-.187-.01-1.46-1.13-2.83-2.489-1.37-1.358-2.568-2.47-2.662-2.47-.094 0-1.273 1.105-2.62 2.455-1.348 1.35-2.63 2.488-2.85 2.53-.22.042-.63-.02-.913-.14zm.018-33.065c-.529-.213-.945-.867-.945-1.483 0-.434.429-.953 2.594-3.136l2.594-2.614-2.594-2.615c-2.228-2.246-2.594-2.693-2.594-3.166 0-.825.679-1.522 1.483-1.522.596 0 .841.194 3.156 2.505 1.38 1.377 2.588 2.504 2.685 2.504.098 0 1.243-1.068 2.546-2.374 1.303-1.306 2.592-2.466 2.864-2.579.692-.286 1.449.055 1.81.818.43.906.096 1.441-2.532 4.045-1.27 1.26-2.311 2.372-2.311 2.472 0 .1 1.078 1.251 2.396 2.56 1.317 1.308 2.465 2.554 2.55 2.769.38.957-.717 2.156-1.746 1.907-.274-.066-1.502-1.144-2.98-2.614l-2.513-2.501-2.425 2.404c-2.881 2.856-3.101 2.998-4.038 2.62z" fill="#2b74d0"/></svg>